<mxfile host="app.diagrams.net" modified="2024-02-06T09:40:41.674Z" agent="Mozilla/5.0 (Windows NT 10.0; Win64; x64) AppleWebKit/537.36 (KHTML, like Gecko) Chrome/121.0.0.0 Safari/537.36" etag="du51rF6nCx8n_iIbR9Pv" version="23.1.1" type="github">
  <diagram id="DaWOHsvKmhR_BfApqOc1" name="Page-1">
    <mxGraphModel dx="1767" dy="731" grid="1" gridSize="10" guides="1" tooltips="1" connect="1" arrows="1" fold="1" page="1" pageScale="1" pageWidth="850" pageHeight="1100" math="0" shadow="0">
      <root>
        <mxCell id="0" />
        <mxCell id="1" parent="0" />
        <mxCell id="2uqyaLcI7hgoTsQ_Ezit-31" value="" style="rounded=1;whiteSpace=wrap;html=1;fillColor=#f5f5f5;fontColor=#333333;strokeColor=#666666;" parent="1" vertex="1">
          <mxGeometry x="51" y="240" width="290" height="280" as="geometry" />
        </mxCell>
        <mxCell id="2uqyaLcI7hgoTsQ_Ezit-1" value="" style="rounded=1;whiteSpace=wrap;html=1;" parent="1" vertex="1">
          <mxGeometry x="380" y="90" width="290" height="440" as="geometry" />
        </mxCell>
        <mxCell id="2uqyaLcI7hgoTsQ_Ezit-2" value="" style="rounded=1;whiteSpace=wrap;html=1;fillColor=#f5f5f5;fontColor=#333333;strokeColor=#666666;" parent="1" vertex="1">
          <mxGeometry x="390" y="100" width="290" height="430" as="geometry" />
        </mxCell>
        <mxCell id="2uqyaLcI7hgoTsQ_Ezit-43" value="" style="rounded=1;whiteSpace=wrap;html=1;fillColor=#f9f7ed;strokeColor=#36393d;" parent="1" vertex="1">
          <mxGeometry x="10" y="380" width="1040" height="120" as="geometry" />
        </mxCell>
        <mxCell id="2uqyaLcI7hgoTsQ_Ezit-6" value="NSSF" style="rounded=0;whiteSpace=wrap;html=1;fillColor=#dae8fc;strokeColor=#6c8ebf;" parent="1" vertex="1">
          <mxGeometry x="410" y="220" width="50" height="20" as="geometry" />
        </mxCell>
        <mxCell id="2uqyaLcI7hgoTsQ_Ezit-8" value="AUSF" style="rounded=0;whiteSpace=wrap;html=1;fillColor=#dae8fc;strokeColor=#6c8ebf;" parent="1" vertex="1">
          <mxGeometry x="467" y="220" width="50" height="20" as="geometry" />
        </mxCell>
        <mxCell id="2uqyaLcI7hgoTsQ_Ezit-9" value="NRF" style="rounded=0;whiteSpace=wrap;html=1;fillColor=#dae8fc;strokeColor=#6c8ebf;" parent="1" vertex="1">
          <mxGeometry x="524" y="220" width="50" height="20" as="geometry" />
        </mxCell>
        <mxCell id="2uqyaLcI7hgoTsQ_Ezit-10" value="UDM" style="rounded=0;whiteSpace=wrap;html=1;fillColor=#dae8fc;strokeColor=#6c8ebf;" parent="1" vertex="1">
          <mxGeometry x="579" y="220" width="40" height="20" as="geometry" />
        </mxCell>
        <mxCell id="2uqyaLcI7hgoTsQ_Ezit-11" value="UDR" style="rounded=0;whiteSpace=wrap;html=1;fillColor=#dae8fc;strokeColor=#6c8ebf;" parent="1" vertex="1">
          <mxGeometry x="627" y="220" width="40" height="20" as="geometry" />
        </mxCell>
        <mxCell id="2uqyaLcI7hgoTsQ_Ezit-12" value="AMF" style="rounded=0;whiteSpace=wrap;html=1;fillColor=#dae8fc;strokeColor=#6c8ebf;" parent="1" vertex="1">
          <mxGeometry x="410" y="295" width="50" height="20" as="geometry" />
        </mxCell>
        <mxCell id="2uqyaLcI7hgoTsQ_Ezit-13" value="SMF" style="rounded=0;whiteSpace=wrap;html=1;fillColor=#dae8fc;strokeColor=#6c8ebf;" parent="1" vertex="1">
          <mxGeometry x="525" y="295" width="50" height="20" as="geometry" />
        </mxCell>
        <mxCell id="2uqyaLcI7hgoTsQ_Ezit-14" value="BSF" style="rounded=0;whiteSpace=wrap;html=1;fillColor=#dae8fc;strokeColor=#6c8ebf;" parent="1" vertex="1">
          <mxGeometry x="586" y="295" width="50" height="20" as="geometry" />
        </mxCell>
        <mxCell id="2uqyaLcI7hgoTsQ_Ezit-15" value="" style="endArrow=none;dashed=1;html=1;dashPattern=1 3;strokeWidth=2;rounded=0;exitX=0.207;exitY=0.468;exitDx=0;exitDy=0;exitPerimeter=0;" parent="1" edge="1">
          <mxGeometry width="50" height="50" relative="1" as="geometry">
            <mxPoint x="434.03" y="291.96000000000004" as="sourcePoint" />
            <mxPoint x="434" y="242" as="targetPoint" />
          </mxGeometry>
        </mxCell>
        <mxCell id="2uqyaLcI7hgoTsQ_Ezit-18" value="" style="endArrow=none;dashed=1;html=1;dashPattern=1 3;strokeWidth=2;rounded=0;edgeStyle=elbowEdgeStyle;elbow=vertical;" parent="1" edge="1">
          <mxGeometry width="50" height="50" relative="1" as="geometry">
            <mxPoint x="545" y="292" as="sourcePoint" />
            <mxPoint x="595" y="242" as="targetPoint" />
          </mxGeometry>
        </mxCell>
        <mxCell id="2uqyaLcI7hgoTsQ_Ezit-19" value="" style="endArrow=none;dashed=1;html=1;dashPattern=1 3;strokeWidth=2;rounded=0;edgeStyle=elbowEdgeStyle;elbow=vertical;" parent="1" edge="1">
          <mxGeometry width="50" height="50" relative="1" as="geometry">
            <mxPoint x="597" y="292" as="sourcePoint" />
            <mxPoint x="647" y="242" as="targetPoint" />
          </mxGeometry>
        </mxCell>
        <mxCell id="2uqyaLcI7hgoTsQ_Ezit-20" value="" style="endArrow=none;dashed=1;html=1;dashPattern=1 3;strokeWidth=2;rounded=0;edgeStyle=elbowEdgeStyle;elbow=vertical;" parent="1" edge="1">
          <mxGeometry width="50" height="50" relative="1" as="geometry">
            <mxPoint x="434" y="292" as="sourcePoint" />
            <mxPoint x="484" y="242" as="targetPoint" />
          </mxGeometry>
        </mxCell>
        <mxCell id="2uqyaLcI7hgoTsQ_Ezit-21" value="" style="endArrow=none;dashed=1;html=1;dashPattern=1 3;strokeWidth=2;rounded=0;edgeStyle=elbowEdgeStyle;elbow=vertical;" parent="1" edge="1">
          <mxGeometry width="50" height="50" relative="1" as="geometry">
            <mxPoint x="490.5" y="292" as="sourcePoint" />
            <mxPoint x="540.5" y="242" as="targetPoint" />
          </mxGeometry>
        </mxCell>
        <mxCell id="2uqyaLcI7hgoTsQ_Ezit-22" value="PCF" style="rounded=0;whiteSpace=wrap;html=1;fillColor=#dae8fc;strokeColor=#6c8ebf;" parent="1" vertex="1">
          <mxGeometry x="467" y="295" width="50" height="20" as="geometry" />
        </mxCell>
        <mxCell id="2uqyaLcI7hgoTsQ_Ezit-23" value="" style="rounded=0;whiteSpace=wrap;html=1;fillColor=#dae8fc;strokeColor=#6c8ebf;" parent="1" vertex="1">
          <mxGeometry x="409" y="387" width="250" height="90" as="geometry" />
        </mxCell>
        <mxCell id="2uqyaLcI7hgoTsQ_Ezit-24" value="GTP-U Tunnel" style="rounded=1;whiteSpace=wrap;html=1;fillColor=#cce5ff;strokeColor=#36393d;" parent="1" vertex="1">
          <mxGeometry x="425" y="407.5" width="85" height="35" as="geometry" />
        </mxCell>
        <mxCell id="2uqyaLcI7hgoTsQ_Ezit-29" value="" style="endArrow=none;html=1;rounded=0;elbow=vertical;entryX=1;entryY=0.5;entryDx=0;entryDy=0;" parent="1" edge="1">
          <mxGeometry width="50" height="50" relative="1" as="geometry">
            <mxPoint x="545" y="425" as="sourcePoint" />
            <mxPoint x="510" y="425" as="targetPoint" />
          </mxGeometry>
        </mxCell>
        <mxCell id="2uqyaLcI7hgoTsQ_Ezit-30" value="UPF" style="text;html=1;strokeColor=none;fillColor=none;align=center;verticalAlign=middle;whiteSpace=wrap;rounded=0;" parent="1" vertex="1">
          <mxGeometry x="505" y="452" width="60" height="30" as="geometry" />
        </mxCell>
        <mxCell id="2uqyaLcI7hgoTsQ_Ezit-35" value="" style="rounded=1;whiteSpace=wrap;html=1;fillColor=#dae8fc;strokeColor=#6c8ebf;" parent="1" vertex="1">
          <mxGeometry x="208" y="401" width="120" height="60" as="geometry" />
        </mxCell>
        <mxCell id="2uqyaLcI7hgoTsQ_Ezit-37" value="GTP-U Tunnel" style="rounded=1;whiteSpace=wrap;html=1;fillColor=#cce5ff;strokeColor=#36393d;" parent="1" vertex="1">
          <mxGeometry x="218" y="417.5" width="85" height="35" as="geometry" />
        </mxCell>
        <mxCell id="2uqyaLcI7hgoTsQ_Ezit-38" value="Text" style="text;html=1;strokeColor=none;fillColor=none;align=center;verticalAlign=middle;whiteSpace=wrap;rounded=0;" parent="1" vertex="1">
          <mxGeometry x="268" y="330" width="60" height="30" as="geometry" />
        </mxCell>
        <mxCell id="2uqyaLcI7hgoTsQ_Ezit-39" value="User Equipment" style="text;html=1;strokeColor=none;fillColor=none;align=center;verticalAlign=middle;whiteSpace=wrap;rounded=0;" parent="1" vertex="1">
          <mxGeometry x="88" y="470" width="60" height="30" as="geometry" />
        </mxCell>
        <mxCell id="2uqyaLcI7hgoTsQ_Ezit-40" value="gNB/NG-RAN" style="text;html=1;strokeColor=none;fillColor=none;align=center;verticalAlign=middle;whiteSpace=wrap;rounded=0;" parent="1" vertex="1">
          <mxGeometry x="230.5" y="470" width="77.5" height="30" as="geometry" />
        </mxCell>
        <mxCell id="2uqyaLcI7hgoTsQ_Ezit-44" value="&lt;font style=&quot;font-size: 20px;&quot;&gt;&lt;b&gt;User &lt;br&gt;Plane&lt;/b&gt;&lt;/font&gt;" style="text;html=1;strokeColor=none;fillColor=none;align=center;verticalAlign=middle;whiteSpace=wrap;rounded=0;" parent="1" vertex="1">
          <mxGeometry x="950" y="377" width="110" height="73" as="geometry" />
        </mxCell>
        <mxCell id="2uqyaLcI7hgoTsQ_Ezit-45" value="Data Network" style="rounded=1;whiteSpace=wrap;html=1;fillColor=#dae8fc;strokeColor=#6c8ebf;" parent="1" vertex="1">
          <mxGeometry x="820" y="397" width="120" height="60" as="geometry" />
        </mxCell>
        <mxCell id="2uqyaLcI7hgoTsQ_Ezit-47" value="" style="endArrow=none;html=1;rounded=0;elbow=vertical;exitX=0;exitY=0.5;exitDx=0;exitDy=0;" parent="1" source="2uqyaLcI7hgoTsQ_Ezit-45" edge="1">
          <mxGeometry width="50" height="50" relative="1" as="geometry">
            <mxPoint x="674.0000000000002" y="428" as="sourcePoint" />
            <mxPoint x="630" y="428" as="targetPoint" />
          </mxGeometry>
        </mxCell>
        <mxCell id="2uqyaLcI7hgoTsQ_Ezit-49" value="NAT" style="text;html=1;strokeColor=none;fillColor=none;align=center;verticalAlign=middle;whiteSpace=wrap;rounded=0;" parent="1" vertex="1">
          <mxGeometry x="614" y="405" width="60" height="30" as="geometry" />
        </mxCell>
        <mxCell id="2uqyaLcI7hgoTsQ_Ezit-50" value="N6" style="text;html=1;strokeColor=none;fillColor=none;align=center;verticalAlign=middle;whiteSpace=wrap;rounded=0;" parent="1" vertex="1">
          <mxGeometry x="750" y="405" width="60" height="30" as="geometry" />
        </mxCell>
        <mxCell id="2uqyaLcI7hgoTsQ_Ezit-51" value="" style="endArrow=none;html=1;rounded=0;elbow=vertical;exitX=0;exitY=0.5;exitDx=0;exitDy=0;" parent="1" source="2uqyaLcI7hgoTsQ_Ezit-24" edge="1">
          <mxGeometry width="50" height="50" relative="1" as="geometry">
            <mxPoint x="425" y="424.47" as="sourcePoint" />
            <mxPoint x="330" y="430" as="targetPoint" />
          </mxGeometry>
        </mxCell>
        <mxCell id="2uqyaLcI7hgoTsQ_Ezit-25" value="Tunnel Interface&lt;br&gt;(ogstun)" style="rounded=1;whiteSpace=wrap;html=1;fillColor=#cce5ff;strokeColor=#36393d;" parent="1" vertex="1">
          <mxGeometry x="535" y="407.5" width="94" height="35" as="geometry" />
        </mxCell>
        <mxCell id="2uqyaLcI7hgoTsQ_Ezit-52" value="N3" style="text;html=1;strokeColor=none;fillColor=none;align=center;verticalAlign=middle;whiteSpace=wrap;rounded=0;" parent="1" vertex="1">
          <mxGeometry x="328" y="405" width="60" height="30" as="geometry" />
        </mxCell>
        <mxCell id="2uqyaLcI7hgoTsQ_Ezit-57" value="" style="endArrow=none;dashed=1;html=1;dashPattern=1 3;strokeWidth=2;rounded=0;elbow=vertical;exitX=0.5;exitY=0;exitDx=0;exitDy=0;" parent="1" edge="1">
          <mxGeometry width="50" height="50" relative="1" as="geometry">
            <mxPoint x="268" y="411" as="sourcePoint" />
            <mxPoint x="412" y="309" as="targetPoint" />
            <Array as="points">
              <mxPoint x="268" y="309" />
            </Array>
          </mxGeometry>
        </mxCell>
        <mxCell id="2uqyaLcI7hgoTsQ_Ezit-58" value="" style="endArrow=none;dashed=1;html=1;dashPattern=1 3;strokeWidth=2;rounded=0;elbow=vertical;exitX=0.646;exitY=-0.04;exitDx=0;exitDy=0;exitPerimeter=0;" parent="1" edge="1">
          <mxGeometry width="50" height="50" relative="1" as="geometry">
            <mxPoint x="145.51999999999998" y="408.6" as="sourcePoint" />
            <mxPoint x="394" y="298.9999999999999" as="targetPoint" />
            <Array as="points">
              <mxPoint x="120" y="416" />
              <mxPoint x="120" y="386" />
              <mxPoint x="120" y="356" />
              <mxPoint x="120" y="299" />
            </Array>
          </mxGeometry>
        </mxCell>
        <mxCell id="2uqyaLcI7hgoTsQ_Ezit-34" value="" style="rounded=1;whiteSpace=wrap;html=1;fillColor=#dae8fc;strokeColor=#6c8ebf;" parent="1" vertex="1">
          <mxGeometry x="68" y="410" width="122" height="55" as="geometry" />
        </mxCell>
        <mxCell id="2uqyaLcI7hgoTsQ_Ezit-33" value="TUN Interface&lt;br&gt;(ueunsim0)" style="rounded=1;whiteSpace=wrap;html=1;fillColor=#cce5ff;strokeColor=#36393d;" parent="1" vertex="1">
          <mxGeometry x="90" y="415.5" width="90" height="45" as="geometry" />
        </mxCell>
        <mxCell id="2uqyaLcI7hgoTsQ_Ezit-53" value="" style="endArrow=none;html=1;rounded=0;elbow=vertical;entryX=1;entryY=0.5;entryDx=0;entryDy=0;exitX=0.024;exitY=0.5;exitDx=0;exitDy=0;exitPerimeter=0;" parent="1" source="2uqyaLcI7hgoTsQ_Ezit-37" edge="1">
          <mxGeometry width="50" height="50" relative="1" as="geometry">
            <mxPoint x="214.00000000000023" y="435" as="sourcePoint" />
            <mxPoint x="179.00000000000023" y="435" as="targetPoint" />
          </mxGeometry>
        </mxCell>
        <mxCell id="2uqyaLcI7hgoTsQ_Ezit-60" value="N2" style="text;html=1;strokeColor=none;fillColor=none;align=center;verticalAlign=middle;whiteSpace=wrap;rounded=0;" parent="1" vertex="1">
          <mxGeometry x="226" y="350" width="60" height="30" as="geometry" />
        </mxCell>
        <mxCell id="2uqyaLcI7hgoTsQ_Ezit-61" value="N1" style="text;html=1;strokeColor=none;fillColor=none;align=center;verticalAlign=middle;whiteSpace=wrap;rounded=0;" parent="1" vertex="1">
          <mxGeometry x="80" y="360" width="60" height="30" as="geometry" />
        </mxCell>
        <mxCell id="2uqyaLcI7hgoTsQ_Ezit-67" value="" style="endArrow=none;html=1;rounded=0;fontSize=24;exitX=0.555;exitY=0.014;exitDx=0;exitDy=0;exitPerimeter=0;" parent="1" source="2uqyaLcI7hgoTsQ_Ezit-23" edge="1">
          <mxGeometry width="50" height="50" relative="1" as="geometry">
            <mxPoint x="499" y="365" as="sourcePoint" />
            <mxPoint x="549" y="315" as="targetPoint" />
          </mxGeometry>
        </mxCell>
        <mxCell id="2uqyaLcI7hgoTsQ_Ezit-68" value="N4" style="text;html=1;strokeColor=none;fillColor=none;align=center;verticalAlign=middle;whiteSpace=wrap;rounded=0;" parent="1" vertex="1">
          <mxGeometry x="504" y="340" width="60" height="30" as="geometry" />
        </mxCell>
        <mxCell id="4E6mrnvjxBhMzHGFy0Dg-1" value="" style="shape=image;verticalLabelPosition=bottom;labelBackgroundColor=default;verticalAlign=top;aspect=fixed;imageAspect=0;image=https://logolook.net/wp-content/uploads/2022/06/Kubernetes-Logo-2048x1152.png;" vertex="1" parent="1">
          <mxGeometry x="574" y="150" width="76" height="42.75" as="geometry" />
        </mxCell>
        <mxCell id="4E6mrnvjxBhMzHGFy0Dg-2" value="&lt;b&gt;&lt;font color=&quot;#31adaf&quot; style=&quot;font-size: 24px;&quot;&gt;IEEE 5G Core Network&lt;/font&gt;&lt;/b&gt;" style="text;html=1;strokeColor=none;fillColor=none;align=center;verticalAlign=middle;whiteSpace=wrap;rounded=0;" vertex="1" parent="1">
          <mxGeometry x="394" y="130" width="280" as="geometry" />
        </mxCell>
        <mxCell id="4E6mrnvjxBhMzHGFy0Dg-4" value="&lt;font color=&quot;#31adaf&quot; style=&quot;font-size: 24px;&quot;&gt;&lt;b&gt;RAN Emulator&lt;/b&gt;&lt;/font&gt;" style="text;html=1;strokeColor=none;fillColor=none;align=center;verticalAlign=middle;whiteSpace=wrap;rounded=0;" vertex="1" parent="1">
          <mxGeometry x="90" y="250" width="190" height="30" as="geometry" />
        </mxCell>
      </root>
    </mxGraphModel>
  </diagram>
</mxfile>
